<svg width="28" height="26" viewBox="0 0 28 26" fill="none" xmlns="http://www.w3.org/2000/svg">
<path d="M17.6 16.6H22.4L26 25H2L5.6 16.6H10.4M15.2 8.2C15.2 8.51826 15.0736 8.82348 14.8485 9.04853C14.6235 9.27357 14.3183 9.4 14 9.4C13.6817 9.4 13.3765 9.27357 13.1515 9.04853C12.9264 8.82348 12.8 8.51826 12.8 8.2C12.8 7.88174 12.9264 7.57652 13.1515 7.35147C13.3765 7.12643 13.6817 7 14 7C14.3183 7 14.6235 7.12643 14.8485 7.35147C15.0736 7.57652 15.2 7.88174 15.2 8.2ZM6.8 8.2C6.8 14.2 14 20.2 14 20.2C14 20.2 21.2 14.2 21.2 8.2C21.2 4.0996 17.9768 1 14 1C10.0232 1 6.8 4.0996 6.8 8.2Z" stroke="black" stroke-width="2"/>
</svg>
